<svg version="1.1" viewBox="0.0 0.0 960.0 720.0" fill="none" stroke="none" stroke-linecap="square" stroke-miterlimit="10" xmlns:xlink="http://www.w3.org/1999/xlink" xmlns="http://www.w3.org/2000/svg"><clipPath id="p.0"><path d="m0 0l960.0 0l0 720.0l-960.0 0l0 -720.0z" clip-rule="nonzero"/></clipPath><g clip-path="url(#p.0)"><path fill="#000000" fill-opacity="0.0" d="m0 0l960.0 0l0 720.0l-960.0 0z" fill-rule="evenodd"/><path fill="#000000" d="m94.14714 496.9773l198.01573 0l0 223.02362l-198.01573 0z" fill-rule="evenodd"/><path stroke="#000000" stroke-width="1.0" stroke-linejoin="round" stroke-linecap="butt" d="m94.14714 496.9773l198.01573 0l0 223.02362l-198.01573 0z" fill-rule="evenodd"/><path fill="#000000" d="m380.9917 119.98965l198.01575 0l0 599.937l-198.01575 0z" fill-rule="evenodd"/><path stroke="#000000" stroke-width="1.0" stroke-linejoin="round" stroke-linecap="butt" d="m380.9917 119.98965l198.01575 0l0 599.937l-198.01575 0z" fill-rule="evenodd"/><path fill="#000000" d="m667.8363 328.02356l198.01575 0l0 391.937l-198.01575 0z" fill-rule="evenodd"/><path stroke="#000000" stroke-width="1.0" stroke-linejoin="round" stroke-linecap="butt" d="m667.8363 328.02356l198.01575 0l0 391.937l-198.01575 0z" fill-rule="evenodd"/></g></svg>